<?xml version="1.0" standalone="no"?>
<!DOCTYPE svg PUBLIC "-//W3C//DTD SVG 20010904//EN"
 "http://www.w3.org/TR/2001/REC-SVG-20010904/DTD/svg10.dtd">
<svg version="1.0" xmlns="http://www.w3.org/2000/svg"
 width="512.000000pt" height="512.000000pt" viewBox="0 0 512.000000 512.000000"
 preserveAspectRatio="xMidYMid meet">
<metadata>
Created by potrace 1.11, written by Peter Selinger 2001-2013
</metadata>
<g transform="translate(0.000000,512.000000) scale(0.100000,-0.100000)"
fill="#000000" stroke="none">
<path d="M1480 4854 c-51 -16 -137 -85 -210 -171 -122 -143 -216 -373 -239
-584 -11 -103 -4 -315 13 -404 2 -11 7 -40 10 -65 8 -57 10 -71 38 -209 22
-113 22 -114 3 -128 -11 -8 -67 -48 -125 -88 -112 -79 -131 -93 -224 -167 -89
-72 -145 -126 -210 -203 -33 -38 -63 -71 -68 -73 -4 -2 -8 -8 -8 -13 0 -5 -15
-32 -33 -61 -112 -180 -169 -392 -169 -633 0 -329 113 -611 334 -826 50 -49
154 -130 203 -158 84 -49 102 -58 180 -88 115 -45 155 -57 235 -69 19 -2 48
-7 63 -10 76 -15 354 -1 430 22 22 7 26 -14 14 -84 -12 -72 -78 -150 -152
-182 -77 -33 -195 -16 -258 38 -16 14 -23 10 -90 -54 -39 -38 -101 -99 -136
-136 l-64 -67 33 -28 c79 -68 207 -130 305 -148 44 -8 174 -8 220 0 132 22
244 82 347 186 139 140 192 286 183 512 l-4 115 54 36 c176 117 316 309 375
518 27 93 34 272 16 383 -48 281 -220 529 -468 670 -37 21 -65 41 -63 44 2 3
-7 6 -18 7 -12 1 -53 13 -91 27 -38 14 -85 29 -105 32 -20 4 -43 8 -51 10 -8
2 -34 4 -58 4 -37 1 -44 5 -53 28 -12 32 -89 309 -89 321 0 4 25 35 56 67 156
167 243 334 291 559 24 110 24 417 0 531 -32 157 -83 284 -166 410 -52 79 -72
100 -119 121 -46 21 -81 23 -132 8z m40 -614 c13 -70 17 -281 6 -345 -19 -116
-78 -270 -89 -235 -15 48 -25 184 -22 310 3 149 15 213 57 313 25 57 31 51 48
-43z m-274 -1426 c13 -43 24 -79 24 -80 0 -1 -27 -18 -61 -39 -168 -103 -300
-283 -357 -482 -24 -87 -28 -244 -7 -304 8 -22 15 -43 15 -47 6 -55 68 -169
126 -231 l31 -34 135 135 135 134 -27 39 c-56 84 -60 174 -13 270 25 53 115
165 132 165 4 0 13 -21 21 -47 7 -27 24 -82 37 -123 86 -270 241 -846 230
-857 -15 -14 -167 -30 -272 -28 -90 2 -139 8 -195 25 -109 33 -151 51 -143 63
3 6 1 7 -5 3 -14 -8 -40 6 -122 68 -80 61 -109 93 -165 177 -91 136 -118 238
-119 434 0 209 31 320 129 466 59 85 251 269 283 269 6 0 12 4 14 8 5 15 132
102 142 99 5 -2 20 -39 32 -83z m644 -464 c169 -99 272 -269 283 -464 8 -133
-31 -245 -119 -347 l-31 -36 -48 181 c-26 100 -48 188 -50 196 -2 8 -29 98
-59 200 -31 102 -64 210 -73 240 -9 30 -18 61 -21 69 -8 22 44 5 118 -39z"/>
<path d="M2816 4090 c-1 -3 -2 -59 -1 -125 l0 -120 1019 -3 c605 -1 1022 2
1025 7 5 8 6 140 2 221 l-1 25 -1021 1 c-561 0 -1021 -3 -1023 -6z"/>
<path d="M2815 3202 l1 -127 1005 -3 c552 -1 1013 0 1024 2 19 5 20 13 20 131
l0 125 -1025 0 -1026 -1 1 -127z"/>
<path d="M2815 2433 l1 -128 369 -1 c204 -1 372 -3 375 -4 3 -1 10 -1 15 0 24
7 1177 4 1182 -3 2 -4 12 -3 22 3 10 5 29 7 41 5 40 -8 45 7 44 132 l-1 118
-1024 3 -1024 2 0 -127z"/>
<path d="M2955 1790 l-140 -5 0 -118 c0 -66 2 -122 5 -125 3 -4 462 -7 1020
-7 794 0 1016 3 1020 12 4 10 5 200 1 238 -1 10 -1634 15 -1906 5z"/>
<path d="M2819 1020 c-5 -24 -3 -243 3 -246 11 -7 2030 -5 2036 1 11 10 7 245
-3 246 -35 4 -2035 3 -2036 -1z"/>
</g>
</svg>
